<mxfile host="app.diagrams.net" modified="2023-07-29T02:42:55.031Z" agent="Mozilla/5.0 (Windows NT 10.0; Win64; x64) AppleWebKit/537.36 (KHTML, like Gecko) Chrome/115.0.0.0 Safari/537.36" etag="jjOCrBS2zjk8dMt0EnUb" version="21.6.5" type="github">
  <diagram name="第 1 页" id="oDeeyap3DuxMffu3wm-Z">
    <mxGraphModel dx="880" dy="446" grid="1" gridSize="10" guides="1" tooltips="1" connect="1" arrows="1" fold="1" page="1" pageScale="1" pageWidth="827" pageHeight="1169" math="0" shadow="0">
      <root>
        <mxCell id="0" />
        <mxCell id="1" parent="0" />
        <mxCell id="xoERg0J3DvHLk7f1IiZZ-1" value="进程A" style="rounded=1;whiteSpace=wrap;html=1;fillColor=#dae8fc;strokeColor=#6c8ebf;fontSize=19;" vertex="1" parent="1">
          <mxGeometry x="110" y="100" width="120" height="60" as="geometry" />
        </mxCell>
        <mxCell id="xoERg0J3DvHLk7f1IiZZ-2" value="进程B" style="rounded=1;whiteSpace=wrap;html=1;fillColor=#fff2cc;strokeColor=#d6b656;fontSize=19;" vertex="1" parent="1">
          <mxGeometry x="110" y="320" width="120" height="60" as="geometry" />
        </mxCell>
        <mxCell id="xoERg0J3DvHLk7f1IiZZ-3" value="" style="rounded=0;whiteSpace=wrap;html=1;fillColor=#e1d5e7;strokeColor=#9673a6;fontSize=19;" vertex="1" parent="1">
          <mxGeometry x="430" y="90" width="150" height="300" as="geometry" />
        </mxCell>
        <mxCell id="xoERg0J3DvHLk7f1IiZZ-4" value="物理地址" style="rounded=0;whiteSpace=wrap;html=1;fillColor=#e1d5e7;strokeColor=#9673a6;fontSize=19;" vertex="1" parent="1">
          <mxGeometry x="430" y="220" width="150" height="40" as="geometry" />
        </mxCell>
        <mxCell id="xoERg0J3DvHLk7f1IiZZ-5" value="物理内存" style="text;html=1;strokeColor=none;fillColor=none;align=center;verticalAlign=middle;whiteSpace=wrap;rounded=0;fontSize=19;" vertex="1" parent="1">
          <mxGeometry x="460" y="400" width="80" height="30" as="geometry" />
        </mxCell>
        <mxCell id="xoERg0J3DvHLk7f1IiZZ-6" value="" style="endArrow=classic;html=1;rounded=0;entryX=0;entryY=0.5;entryDx=0;entryDy=0;fontSize=19;" edge="1" parent="1" source="xoERg0J3DvHLk7f1IiZZ-1" target="xoERg0J3DvHLk7f1IiZZ-4">
          <mxGeometry width="50" height="50" relative="1" as="geometry">
            <mxPoint x="390" y="260" as="sourcePoint" />
            <mxPoint x="440" y="210" as="targetPoint" />
          </mxGeometry>
        </mxCell>
        <mxCell id="xoERg0J3DvHLk7f1IiZZ-8" value="先写入" style="edgeLabel;html=1;align=center;verticalAlign=middle;resizable=0;points=[];fontSize=19;" vertex="1" connectable="0" parent="xoERg0J3DvHLk7f1IiZZ-6">
          <mxGeometry x="-0.3574" y="1" relative="1" as="geometry">
            <mxPoint x="16" y="3" as="offset" />
          </mxGeometry>
        </mxCell>
        <mxCell id="xoERg0J3DvHLk7f1IiZZ-7" value="" style="endArrow=classic;html=1;rounded=0;exitX=1;exitY=0.5;exitDx=0;exitDy=0;entryX=0;entryY=0.5;entryDx=0;entryDy=0;fontSize=19;" edge="1" parent="1" source="xoERg0J3DvHLk7f1IiZZ-2" target="xoERg0J3DvHLk7f1IiZZ-4">
          <mxGeometry width="50" height="50" relative="1" as="geometry">
            <mxPoint x="390" y="260" as="sourcePoint" />
            <mxPoint x="440" y="210" as="targetPoint" />
          </mxGeometry>
        </mxCell>
        <mxCell id="xoERg0J3DvHLk7f1IiZZ-10" value="后写入" style="edgeLabel;html=1;align=center;verticalAlign=middle;resizable=0;points=[];fontSize=19;" vertex="1" connectable="0" parent="xoERg0J3DvHLk7f1IiZZ-7">
          <mxGeometry x="0.0307" y="2" relative="1" as="geometry">
            <mxPoint x="-22" y="13" as="offset" />
          </mxGeometry>
        </mxCell>
        <mxCell id="xoERg0J3DvHLk7f1IiZZ-11" value="" style="verticalLabelPosition=bottom;verticalAlign=top;html=1;shape=mxgraph.basic.x;fillColor=#e51400;strokeColor=#B20000;fontColor=#ffffff;spacing=-1;fontSize=19;" vertex="1" parent="1">
          <mxGeometry x="290" y="320" width="40" height="50" as="geometry" />
        </mxCell>
      </root>
    </mxGraphModel>
  </diagram>
</mxfile>
